# xmcd
#
# Track frame offsets:
#	150
#	3863
#	5458
#	7241
#	11524
#	16202
#	17708
#	19108
#	21692
#	23653
#	27279
#	29463
#	31919
#	34103
#	35946
#	37478
#	39514
#	41152
#	44791
#	47929
#	51213
#	53532
#	56541
#	59706
#	61804
#	63651
#	66290
#	68327
#	72102
#	73333
#	75393
#	77521
#	81070
#	82712
#	85094
#	87967
#	90773
#	93156
#	95928
#	97945
#	99637
#	103297
#	106564
#	109437
#	115322
#	117337
#	118908
#	122844
#	126104
#	128171
#	130173
#	132858
#	134294
#	135781
#	140115
#	142026
#	145676
#	147422
#	150671
#	152393
#	154463
#	155985
#	157477
#	161012
#	163143
#	166365
#	167633
#	169608
#	172639
#	174326
#	180150
#	185120
#	187414
#	188790
#	191022
#	192631
#	194287
#	195919
#	198987
#	200747
#	202528
#	204050
#	207010
#	209622
#	211701
#	213552
#	215481
#	216841
#	222777
#	224583
#	230995
#	233220
#	237842
#	240457
#	243205
#	246733
#	248297
#	251532
#	253477
#
# Disc length: 3402 seconds
#
# Revision: 0
# Processed by: cddbd v1.5.2PL0 Copyright (c) Steve Scherf et al.
# Submitted via: dBpowerAMP V4.0
#
DISCID=a20d4863
DTITLE=Little stream of whiskey - country,bluegrass and old time country songbook
DYEAR=1900
DGENRE=Country
TTITLE0=A beutiful life
TTITLE1=Ain't gonna work tomorrow
TTITLE2=All the good times are past and gone
TTITLE3=Angel band
TTITLE4=Banks of the Ohio
TTITLE5=Big ball in Boston
TTITLE6=Black-eyed Susie
TTITLE7=The blue-tail fly
TTITLE8=Buffalo gals
TTITLE9=Bury me beneath the willow
TTITLE10=Captain Kid
TTITLE11=Careless love
TTITLE12=Cluck old hen
TTITLE13=Cripple creek
TTITLE14=Cumberland gap
TTITLE15=Dark hollow
TTITLE16=Darling corey
TTITLE17=Dixie
TTITLE18=Down in the valley
TTITLE19=Down in the willow garden
TTITLE20=The erie canal
TTITLE21=Fair and tender laidies
TTITLE22=Footprints in the snow
TTITLE23=Frankie and Johnie
TTITLE24=Goin' down the road feelin' bad
TTITLE25=Goober peas
TTITLE26=Goodbye old paint
TTITLE27=Greensleeves
TTITLE28=Ground hog
TTITLE29=Hand me down my walking cane
TTITLE30=Handsome Molly
TTITLE31=Home on the range
TTITLE32=Hot corn,cold corn
TTITLE33=House of the rising sun
TTITLE34=i truly understand
TTITLE35=I'm a pilgrim
TTITLE36=In the pines
TTITLE37=Jesse James
TTITLE38=John Henry
TTITLE39=Johnson boys
TTITLE40=Just over in the gloryland
TTITLE41=Keep on the sunny side
TTITLE42=Kumbaya
TTITLE43=Life is like a mountain railroad
TTITLE44=Little birdie
TTITLE45=Little Liza Jane
TTITLE46=Little mohee
TTITLE47=The little old log cabin in the lane
TTITLE48=Little rosewood casket
TTITLE49=Little stream of whiskey
TTITLE50=Lonesome valley
TTITLE51=Long journey home
TTITLE52=Mama don't 'low
TTITLE53=Methodist pie
TTITLE54=Michael,row the boat ashore
TTITLE55=The midnight special
TTITLE56=Mole in the ground
TTITLE57=My bonnie lies over the ocean
TTITLE58=My home's across the smoky mountains
TTITLE59=Nine-pound hammer
TTITLE60=The old chisholm trail
TTITLE61=Old-time religion
TTITLE62=On top of old moky
TTITLE63=Pallet on your floor
TTITLE64=Palms of victory
TTITLE65=Pick a  bale of cotton
TTITLE66=Pretty polly
TTITLE67=Pretty Saro
TTITLE68=Railroad Bill
TTITLE69=Rank stranger
TTITLE70=Red river valley
TTITLE71=Roll in my sweet baby's arms
TTITLE72=Roving gambler
TTITLE73=Sail away ladies
TTITLE74=Salty dog blues
TTITLE75=Shady grove
TTITLE76=She'l be comin' round the mountain
TTITLE77=Simple gifts
TTITLE78=Sinner man
TTITLE79=Sitting on top of the world
TTITLE80=Skip to my lou
TTITLE81=The sloop John B.
TTITLE82=The streets of Laredo
TTITLE83=Sweet Betsy from pike
TTITLE84=Take this hammer
TTITLE85=This train
TTITLE86=Tom Dooley
TTITLE87=Two little boys
TTITLE88=Wabash Cannonball
TTITLE89=Wayfaring stranger
TTITLE90=What shall we do with the drunken sailor
TTITLE91=Where we'll never grow old
TTITLE92=Whiskey in the jar
TTITLE93=Wildwood flower
TTITLE94=Will the circle be unbroken?
TTITLE95=Wind and rain
TTITLE96=Working on a building
TTITLE97=Worried man blues
TTITLE98=The wreck of the old ninety-seven
EXTD=
EXTT0=
EXTT1=
EXTT2=
EXTT3=
EXTT4=
EXTT5=
EXTT6=
EXTT7=
EXTT8=
EXTT9=
EXTT10=
EXTT11=
EXTT12=
EXTT13=
EXTT14=
EXTT15=
EXTT16=
EXTT17=
EXTT18=
EXTT19=
EXTT20=
EXTT21=
EXTT22=
EXTT23=
EXTT24=
EXTT25=
EXTT26=
EXTT27=
EXTT28=
EXTT29=
EXTT30=
EXTT31=
EXTT32=
EXTT33=
EXTT34=
EXTT35=
EXTT36=
EXTT37=
EXTT38=
EXTT39=
EXTT40=
EXTT41=
EXTT42=
EXTT43=
EXTT44=
EXTT45=
EXTT46=
EXTT47=
EXTT48=
EXTT49=
EXTT50=
EXTT51=
EXTT52=
EXTT53=
EXTT54=
EXTT55=
EXTT56=
EXTT57=
EXTT58=
EXTT59=
EXTT60=
EXTT61=
EXTT62=
EXTT63=
EXTT64=
EXTT65=
EXTT66=
EXTT67=
EXTT68=
EXTT69=
EXTT70=
EXTT71=
EXTT72=
EXTT73=
EXTT74=
EXTT75=
EXTT76=
EXTT77=
EXTT78=
EXTT79=
EXTT80=
EXTT81=
EXTT82=
EXTT83=
EXTT84=
EXTT85=
EXTT86=
EXTT87=
EXTT88=
EXTT89=
EXTT90=
EXTT91=
EXTT92=
EXTT93=
EXTT94=
EXTT95=
EXTT96=
EXTT97=
EXTT98=
PLAYORDER=
